<svg width="16" height="18" viewBox="0 0 16 18" fill="none" xmlns="http://www.w3.org/2000/svg">
<path d="M15.7812 15.092L12.6656 11.6932C12.525 11.5398 12.3344 11.4545 12.1344 11.4545H11.625C12.4875 10.2511 13 8.7375 13 7.09091C13 3.17386 10.0906 0 6.5 0C2.90937 0 0 3.17386 0 7.09091C0 11.008 2.90937 14.1818 6.5 14.1818C8.00937 14.1818 9.39687 13.6227 10.5 12.6818V13.2375C10.5 13.4557 10.5781 13.6636 10.7187 13.817L13.8344 17.2159C14.1281 17.5364 14.6031 17.5364 14.8937 17.2159L15.7781 16.2511C16.0719 15.9307 16.0719 15.4125 15.7812 15.092ZM6.5 11.4545C4.29062 11.4545 2.5 9.50455 2.5 7.09091C2.5 4.68068 4.2875 2.72727 6.5 2.72727C8.70937 2.72727 10.5 4.67727 10.5 7.09091C10.5 9.50114 8.7125 11.4545 6.5 11.4545Z" fill="#C1C1C1"/>
</svg>
